
<svg width="241.43594360351562px" height="121.37599487304688px" xmlns="http://www.w3.org/2000/svg" viewBox="129.2820281982422 14.312002563476561 241.43594360351562 121.37599487304688" style="background: rgba(0, 0, 0, 0);" preserveAspectRatio="xMidYMid"><defs><filter id="editing-jagged" x="-100%" y="-100%" width="300%" height="300%"><feTurbulence result="turb" baseFrequency="0.1" numOctaves="1" seed="1"></feTurbulence><feDisplacementMap in="SourceGraphic" in2="turb" scale="10"></feDisplacementMap></filter></defs><g filter="url(#editing-jagged)"><g transform="translate(171.08320331573486, 97.33499145507812)"><path d="M3.07-39.87L3.07-39.87L3.07-39.87Q6.08-43.39 11.07-43.39L11.07-43.39L11.07-43.39Q15.04-43.39 17.15-41.86L17.15-41.86L17.15-41.86Q19.26-40.26 20.67-36.35L20.67-36.35L23.36-28.74L33.02-42.18L41.66-42.18L25.98-21.38L30.02-9.98L30.02-9.98Q30.91-7.42 32.48-5.54L32.48-5.54L32.48-5.54Q34.05-3.65 35.46-3.33L35.46-3.33L35.46-3.33Q34.18-0.90 31.97 0.19L31.97 0.19L31.97 0.19Q29.76 1.28 26.53 1.28L26.53 1.28L26.53 1.28Q23.30 1.28 21.02-0.83L21.02-0.83L21.02-0.83Q18.75-2.94 17.02-7.68L17.02-7.68L15.17-12.80L5.50 0L-2.37 0L12.35-20.42L7.74-33.28L7.74-33.28Q6.72-36.10 5.70-37.54L5.70-37.54L5.70-37.54Q4.67-38.98 3.07-39.87ZM67.90 1.28L67.90 1.28L67.90 1.28Q59.71 1.28 58.94-10.37L58.94-10.37L47.94-10.37L47.94-10.37Q46.66-7.42 45.76-4.86L45.76-4.86L44.10 0L35.14 0L55.30-42.24L69.06-42.24L71.74-11.14L71.74-11.14Q72.38-4.42 74.94-2.43L74.94-2.43L74.94-2.43Q73.09 1.28 67.90 1.28ZM53.44-23.17L49.92-15.04L58.75-15.04L57.98-31.49L57.98-33.22L53.44-23.17ZM91.78 0L78.08 0L85.89-42.05L85.89-42.05Q92.22-42.75 101.47-42.75L101.47-42.75L101.47-42.75Q110.72-42.75 115.01-40.06L115.01-40.06L115.01-40.06Q119.30-37.38 119.30-31.97L119.30-31.97L119.30-31.97Q119.30-26.56 116.51-23.17L116.51-23.17L116.51-23.17Q113.73-19.78 108.93-18.69L108.93-18.69L108.93-18.69Q110.02-13.38 112.51-9.09L112.51-9.09L112.51-9.09Q114.82-5.06 117.50-3.78L117.50-3.78L117.50-3.78Q116.54-1.09 114.59 0.10L114.59 0.10L114.59 0.10Q112.64 1.28 109.86 1.28L109.86 1.28L109.86 1.28Q107.07 1.28 104.90-0.35L104.90-0.35L104.90-0.35Q102.72-1.98 100.99-4.99L100.99-4.99L100.99-4.99Q97.34-11.52 96.96-21.82L96.96-21.82L97.41-21.82L97.41-21.82Q102.14-21.95 104.51-24.42L104.51-24.42L104.51-24.42Q106.88-26.88 106.88-32.06L106.88-32.06L106.88-32.06Q106.88-38.53 101.44-38.78L101.44-38.78L100.03-38.78L100.03-38.78Q99.46-38.78 99.14-38.72L99.14-38.72L91.78 0ZM150.34 1.28L150.34 1.28L150.34 1.28Q142.14 1.28 141.38-10.37L141.38-10.37L130.37-10.37L130.37-10.37Q129.09-7.42 128.19-4.86L128.19-4.86L126.53 0L117.57 0L137.73-42.24L151.49-42.24L154.18-11.14L154.18-11.14Q154.82-4.42 157.38-2.43L157.38-2.43L157.38-2.43Q155.52 1.28 150.34 1.28ZM135.87-23.17L132.35-15.04L141.18-15.04L140.42-31.49L140.42-33.22L135.87-23.17Z" fill="#444"></path></g></g></svg>